<?xml version="1.0" encoding="UTF-8" standalone="no"?>
<!-- Created with Inkscape (http://www.inkscape.org/) -->

<svg
   xmlns:dc="http://purl.org/dc/elements/1.1/"
   xmlns:cc="http://creativecommons.org/ns#"
   xmlns:rdf="http://www.w3.org/1999/02/22-rdf-syntax-ns#"
   xmlns:svg="http://www.w3.org/2000/svg"
   xmlns="http://www.w3.org/2000/svg"
   xmlns:sodipodi="http://sodipodi.sourceforge.net/DTD/sodipodi-0.dtd"
   xmlns:inkscape="http://www.inkscape.org/namespaces/inkscape"
   id="svg3020"
   version="1.1"
   inkscape:version="0.48.3.1 r9886"
   width="217.4375"
   height="102.875"
   xml:space="preserve"
   sodipodi:docname="esiee.eps"><metadata
     id="metadata3026"><rdf:RDF><cc:Work
         rdf:about=""><dc:format>image/svg+xml</dc:format><dc:type
           rdf:resource="http://purl.org/dc/dcmitype/StillImage" /><dc:title></dc:title></cc:Work></rdf:RDF></metadata><defs
     id="defs3024" /><sodipodi:namedview
     pagecolor="#ffffff"
     bordercolor="#666666"
     borderopacity="1"
     objecttolerance="10"
     gridtolerance="10"
     guidetolerance="10"
     inkscape:pageopacity="0"
     inkscape:pageshadow="2"
     inkscape:window-width="1440"
     inkscape:window-height="857"
     id="namedview3022"
     showgrid="false"
     inkscape:zoom="3.1687266"
     inkscape:cx="85.813668"
     inkscape:cy="38.726868"
     inkscape:window-x="0"
     inkscape:window-y="21"
     inkscape:window-maximized="1"
     inkscape:current-layer="g3028" /><g
     id="g3028"
     inkscape:groupmode="layer"
     inkscape:label="ink_ext_XXXXXX"
     transform="matrix(1.25,0,0,-1.25,0,102.875)"><g
       id="g3030"
       transform="scale(0.1,0.1)"><path
         d="m 1225.87,215.391 -728.37,0"
         style="fill:none;stroke:#153e5d;stroke-opacity:1;stroke-width:5.00125;stroke-linecap:butt;stroke-linejoin:miter;stroke-miterlimit:4;stroke-dasharray:none"
         id="path3032" /><path
         d="m 338.523,784.672 -204.546,0 c -15.563,0 -26.332,-4.738 -26.332,-23.875 l 0,-154.367 165.175,0 25,-66.856 -190.175,0 0,-159.152 c 0,-23.906 14.367,-35.875 40.66,-35.875 l 204.554,0 0,-38.235 -270.3238,0 C 31.0977,306.312 0,330.211 0,397.188 l 0,319.374 c 0,51.399 7.17188,106.45 93.332,106.45 l 245.191,0 0,-38.34"
         style="fill:#153e5d;fill-opacity:1;fill-rule:nonzero;stroke:none"
         id="path3034" /><path
         d="m 1725.14,784.672 -204.55,0 c -15.56,0 -26.34,-4.738 -26.34,-23.875 l 0,-154.367 165.18,0 25.01,-66.856 -190.19,0 0,-159.152 c 0,-23.906 14.38,-35.875 40.67,-35.875 l 204.55,0 0,-38.235 -270.32,0 c -51.44,0 -82.54,23.899 -82.54,82.547 l 0,319.364 c 0,59.738 7.17,114.789 93.33,114.789 l 245.2,0 0,-38.34"
         style="fill:#153e5d;fill-opacity:1;fill-rule:nonzero;stroke:none"
         id="path3036" /><path
         d="m 383.906,352.941 c 34.684,-4.836 71.785,-8.394 105.274,-8.394 52.64,0 112.437,14.351 112.437,78.953 0,108.82 -230.84,106.445 -230.84,252.352 0,116.043 101.688,147.16 178.211,147.16 47.832,0 88.489,-4.824 117.2,-8.371 l 0,-35.891 c -22.692,2.375 -43.024,5.922 -66.958,5.922 -53.82,0 -128,2.422 -128,-71.738 0,-98.079 238.047,-93.262 238.047,-260.754 0,-101.637 -82.535,-145.868 -178.222,-145.868 -53.848,0 -99.254,1.145 -147.149,13.086 l 0,33.543"
         style="fill:#153e5d;fill-opacity:1;fill-rule:nonzero;stroke:none"
         id="path3038" /><path
         d="m 788.223,815.52 0,-509.208 107.589,0 0,434.215 -107.589,74.993"
         style="fill:#153e5d;fill-opacity:1;fill-rule:nonzero;stroke:none"
         id="path3040" /><path
         d="m 1140.96,344.547 c -26.28,0 -40.65,11.969 -40.65,35.875 l 0,159.152 188.97,0 -25,66.856 -163.97,0 0,154.367 c 0,19.137 10.77,23.875 26.34,23.875 l 204.53,0 0,38.34 -245.19,0 c -86.154,0 -93.314,-55.051 -93.314,-106.45 l 0,-84.597 79.054,-53.867 -79.054,-51.438 0,-129.472 c 0,-66.977 31.094,-90.876 82.524,-90.876 l 254.89,0 0,38.235 -189.13,0"
         style="fill:#153e5d;fill-opacity:1;fill-rule:nonzero;stroke:none"
         id="path3042" /><path
         d="m 552.672,80.9102 c 6.398,-1.379 14.863,-2.2891 21.719,-2.2891 14.851,0 25.144,16.2227 25.144,32.6799 0,18.738 -11.668,34.273 -31.316,34.273 -5.254,0 -10.508,-0.679 -15.547,-2.047 l 0,-62.6168 z m 0,-48.461 c 0,-19.1875 0,-24.91014 21.484,-24.91014 l 0,-4.10937 -64.449,0 0,4.10937 c 21.481,0 21.481,5.72264 21.481,24.91014 l 0,93.2458 c 0,19.2 0,24.91 -21.481,24.91 l 0,4.122 61.715,0 c 35.652,0 53.707,-19.891 53.707,-42.278 0,-11.902 -6.633,-41.5974 -47.078,-41.5974 -8.457,0 -16.914,1.5976 -25.379,3.4336 l 0,-41.836"
         style="fill:#153e5d;fill-opacity:1;fill-rule:nonzero;stroke:none"
         id="path3044" /><path
         d="m 704.008,123.41 -26.274,-61.0077 52.102,0 -25.828,61.0077 z M 674.285,54.1602 665.152,32.9297 c -1.816,-3.9063 -5.031,-10.9844 -5.031,-15.332 0,-8.46489 9.149,-9.36332 17.613,-10.05864 l 0,-4.10937 -47.543,0 0,4.10937 c 11.883,1.15235 16.68,7.07814 23.532,23.08594 l 54.398,127.531 4.113,0 51.426,-123.4177 c 5.711,-13.711 10.047,-26.50392 26.965,-27.19924 l 0,-4.10937 -59.652,0 0,4.10937 c 9.828,0.45703 15.535,2.28516 15.535,10.29294 0,5.0196 -3.641,12.793 -5.477,17.3711 l -8.226,18.9571 -58.52,0"
         style="fill:#153e5d;fill-opacity:1;fill-rule:nonzero;stroke:none"
         id="path3046" /><path
         d="m 863.07,81.3594 5.032,0 c 21.707,0 44.566,7.7734 44.566,33.1526 0,18.273 -12.336,31.992 -30.852,31.992 -6.406,0 -12.574,-1.152 -18.746,-2.059 l 0,-63.0856 z m 66.969,-77.92971 -51.418,70.62501 -15.551,0 0,-41.6055 c 0,-19.1875 0,-24.91014 21.492,-24.91014 l 0,-4.10937 -64.457,0 0,4.10937 c 21.481,0 21.481,5.72264 21.481,24.91014 l 0,93.2458 c 0,19.2 0,24.91 -21.481,24.91 l 0,4.122 65.598,0 c 44.567,0 52.559,-26.055 52.559,-39.317 0,-21.9334 -17.594,-34.2655 -37.481,-38.3866 L 930.27,35.8906 C 941.465,20.3438 949.695,9.13281 970.492,7.53906 l 0,-4.10937 -40.453,0"
         style="fill:#153e5d;fill-opacity:1;fill-rule:nonzero;stroke:none"
         id="path3048" /><path
         d="m 1039.73,32.4492 c 0,-19.1875 0,-24.91014 21.49,-24.91014 l 0,-4.10937 -64.45,0 0,4.10937 c 21.48,0 21.48,5.72264 21.48,24.91014 l 0,93.2458 c 0,19.2 0,24.91 -21.48,24.91 l 0,4.122 64.45,0 0,-4.122 c -21.49,0 -21.49,-5.71 -21.49,-24.91 l 0,-93.2458"
         style="fill:#153e5d;fill-opacity:1;fill-rule:nonzero;stroke:none"
         id="path3050" /><path
         d="m 1195.15,105.82 -4.12,0 c -1.6,23.985 -17.14,43.418 -42.28,43.418 -13.02,0 -26.28,-9.824 -26.28,-23.543 0,-31.7692 82.73,-37.2458 82.73,-82.0427 C 1205.2,19.8945 1186.46,0 1157.44,0 c -10.52,0 -18.06,2.0625 -24,4.34766 -6.18,2.05859 -10.74,4.10937 -16.23,4.10937 -5.25,0 -6.39,-3.88672 -6.85,-8.45703 l -4.12,0 0,51.875 4.12,0 c 3.41,-36.5625 31.31,-42.96875 44.79,-42.96875 15.31,0 30.16,7.99995 30.16,24.69925 0,34.7226 -80.44,38.8437 -80.44,84.0975 0,23.313 21.02,40.453 44.79,40.453 8.23,0 15.09,-2.051 20.57,-4.347 5.72,-2.051 10.07,-4.336 13.03,-4.336 5.49,0 6.86,4.113 7.77,8.683 l 4.12,0 0,-52.336"
         style="fill:#153e5d;fill-opacity:1;fill-rule:nonzero;stroke:none"
         id="path3052" /></g></g></svg>